<?xml version="1.0" standalone="no"?>
<!DOCTYPE svg PUBLIC "-//W3C//DTD SVG 20010904//EN"
 "http://www.w3.org/TR/2001/REC-SVG-20010904/DTD/svg10.dtd">
<svg version="1.0" xmlns="http://www.w3.org/2000/svg"
 width="300.000000pt" height="300.000000pt" viewBox="0 0 300.000000 300.000000"
 preserveAspectRatio="xMidYMid meet">
<metadata>
Created by potrace 1.10, written by Peter Selinger 2001-2011
</metadata>
<g transform="translate(0.000000,300.000000) scale(0.100000,-0.100000)"
fill="#000000" stroke="none">
<path d="M2570 2405 c-19 -14 -200 -192 -401 -395 l-366 -371 -104 8 c-152 11
-169 10 -191 -16 -22 -28 -24 -67 -2 -75 8 -3 58 1 111 10 52 8 100 13 105 12
6 -2 -36 -46 -93 -98 -57 -52 -111 -102 -119 -110 -8 -8 -46 -41 -85 -73 -38
-32 -92 -77 -119 -100 -163 -139 -432 -299 -559 -332 -73 -19 -174 -19 -219
-1 -140 59 -154 228 -42 508 100 252 208 403 396 554 193 154 400 214 471 136
47 -52 60 -158 30 -234 -9 -24 -40 -82 -69 -130 -53 -89 -56 -113 -9 -82 50
33 111 134 149 248 52 154 25 236 -90 271 -62 19 -105 19 -191 1 -149 -32
-315 -123 -480 -266 -174 -148 -315 -355 -379 -550 -34 -105 -38 -268 -9 -335
55 -127 162 -188 330 -189 171 -1 399 111 718 351 112 83 261 208 347 289 30
28 79 72 108 98 l53 46 109 0 c70 0 110 -4 110 -10 0 -6 -15 -43 -34 -83 -66
-141 -116 -329 -116 -433 0 -62 23 -112 57 -125 56 -21 180 19 201 66 15 34
-5 34 -54 0 -47 -32 -58 -31 -84 3 -29 35 -23 102 18 228 39 117 146 340 167
348 9 3 34 6 55 6 55 0 190 19 219 31 46 19 2 29 -127 29 -68 0 -122 3 -120 8
2 4 45 91 97 192 107 212 148 277 201 323 47 41 64 74 80 164 11 59 11 75 0
88 -17 20 -29 19 -70 -10z m-272 -447 c-46 -73 -87 -140 -91 -148 -4 -8 -13
-24 -20 -35 -7 -11 -27 -46 -45 -77 l-33 -58 -105 0 c-57 0 -104 2 -104 5 0 5
142 142 234 226 33 30 100 93 150 141 50 47 92 85 94 83 2 -2 -34 -63 -80
-137z"/>
</g>
</svg>
